<svg width="17" height="18" viewBox="0 0 17 18" fill="none" xmlns="http://www.w3.org/2000/svg">
<path d="M8.18905 17.9867C3.66623 17.9867 0 13.963 0 8.99921C0 4.0354 3.66623 0.0117188 8.18905 0.0117188C12.7119 0.0117188 16.3781 4.0354 16.3781 8.99921C16.3781 13.963 12.7119 17.9867 8.18905 17.9867ZM8.18905 0.98944C4.18018 0.98944 0.890859 4.59947 0.890859 8.99921C0.890859 13.3989 4.18018 17.009 8.18905 17.009C12.1979 17.009 15.4872 13.3989 15.4872 8.99921C15.4872 4.59947 12.1979 0.98944 8.18905 0.98944Z" fill="white"/>
<path d="M3.83594 8.47266H12.5389V9.52558H3.83594V8.47266Z" fill="white"/>
<path d="M7.71094 4.22266H8.67032V13.7742H7.71094V4.22266Z" fill="white"/>
</svg>
