<svg width="31" height="36" viewBox="0 0 31 36" style="background-color:white" xmlns="http://www.w3.org/2000/svg">
<path d="M29.2726 0H1.7261C1.24306 0 0.851562 0.391501 0.851562 0.874536V27.8938C0.851562 28.3769 1.24306 28.7684 1.7261 28.7684C2.20913 28.7684 2.60064 28.3769 2.60064 27.8938V1.74907H28.3981V34.2509H2.60064V31.9109C2.60064 31.4278 2.20913 31.0363 1.7261 31.0363C1.24306 31.0363 0.851562 31.4278 0.851562 31.9109V35.1255C0.851562 35.6085 1.24306 36 1.7261 36H29.2726C29.7557 36 30.1472 35.6085 30.1472 35.1255V0.874536C30.1472 0.391501 29.7557 0 29.2726 0Z" fill="#4E45DD"/>
<path d="M18.7293 7.23242C18.2463 7.23242 17.8548 7.62392 17.8548 8.10696V8.83574H6.24563C5.76259 8.83574 5.37109 9.22724 5.37109 9.71027C5.37109 10.1933 5.76259 10.5848 6.24563 10.5848H17.8548V11.3136C17.8548 11.7966 18.2463 12.1881 18.7293 12.1881C19.2124 12.1881 19.6039 11.7966 19.6039 11.3136V10.5848H21.5798V11.3136C21.5798 11.7966 21.9713 12.1881 22.4543 12.1881C22.9373 12.1881 23.3288 11.7966 23.3288 11.3136V10.5848H24.7567C25.2397 10.5848 25.6312 10.1933 25.6312 9.71027C25.6312 9.22724 25.2397 8.83574 24.7567 8.83574H23.3288V8.10696C23.3288 7.62392 22.9373 7.23242 22.4543 7.23242C21.9713 7.23242 21.5798 7.62392 21.5798 8.10696V8.83574H19.6039V8.10696C19.6039 7.62392 19.2123 7.23242 18.7293 7.23242Z" fill="#4E45DD"/>
<path d="M6.24563 18.8739H7.67346V19.6027C7.67346 20.0857 8.06496 20.4772 8.54799 20.4772C9.03103 20.4772 9.42253 20.0857 9.42253 19.6027V18.8739H11.3984V19.6027C11.3984 20.0857 11.7899 20.4772 12.2729 20.4772C12.756 20.4772 13.1475 20.0857 13.1475 19.6027V18.8739H24.7567C25.2397 18.8739 25.6312 18.4824 25.6312 17.9993C25.6312 17.5163 25.2397 17.1248 24.7567 17.1248H13.1475V16.396C13.1475 15.913 12.756 15.5215 12.2729 15.5215C11.7899 15.5215 11.3984 15.913 11.3984 16.396V17.1248H9.42253V16.396C9.42253 15.913 9.03103 15.5215 8.54799 15.5215C8.06496 15.5215 7.67346 15.913 7.67346 16.396V17.1248H6.24563C5.76259 17.1248 5.37109 17.5163 5.37109 17.9993C5.37109 18.4824 5.76259 18.8739 6.24563 18.8739Z" fill="#4E45DD"/>
<path d="M6.24563 27.1649H17.8548V27.8937C17.8548 28.3767 18.2463 28.7682 18.7293 28.7682C19.2124 28.7682 19.6039 28.3767 19.6039 27.8937V27.1649H21.5798V27.8937C21.5798 28.3767 21.9713 28.7682 22.4543 28.7682C22.9373 28.7682 23.3288 28.3767 23.3288 27.8937V27.1649H24.7567C25.2397 27.1649 25.6312 26.7734 25.6312 26.2904C25.6312 25.8073 25.2397 25.4158 24.7567 25.4158H23.3288V24.687C23.3288 24.204 22.9373 23.8125 22.4543 23.8125C21.9713 23.8125 21.5798 24.204 21.5798 24.687V25.4158H19.6039V24.687C19.6039 24.204 19.2124 23.8125 18.7293 23.8125C18.2463 23.8125 17.8548 24.204 17.8548 24.687V25.4158H6.24563C5.76259 25.4158 5.37109 25.8073 5.37109 26.2904C5.37109 26.7734 5.76259 27.1649 6.24563 27.1649Z" fill="#4E45DD"/>
</svg>
