<svg width="48" height="48" viewBox="0 0 48 48" fill="none" xmlns="http://www.w3.org/2000/svg">
<path d="M24 48C10.767 48 0 37.233 0 24C0 10.767 10.767 0 24 0C37.233 0 48 10.767 48 24C48 37.233 37.233 48 24 48ZM24 2C11.869 2 2 11.869 2 24C2 36.131 11.869 46 24 46C36.131 46 46 36.131 46 24C46 11.869 36.131 2 24 2Z" fill="#CB3A31"/>
<path d="M24 42C15.178 42 8 34.822 8 26C8 25.447 8.448 25 9 25C9.552 25 10 25.447 10 26C10 33.72 16.28 40 24 40C31.72 40 38 33.72 38 26C38 25.447 38.448 25 39 25C39.552 25 40 25.447 40 26C40 34.822 32.822 42 24 42Z" fill="#CB3A31"/>
<path d="M19 21C18.448 21 18 20.553 18 20C18 18.346 16.654 17 15 17C13.346 17 12 18.346 12 20C12 20.553 11.552 21 11 21C10.448 21 10 20.553 10 20C10 17.243 12.243 15 15 15C17.757 15 20 17.243 20 20C20 20.553 19.552 21 19 21Z" fill="#CB3A31"/>
<path d="M37 21C36.448 21 36 20.553 36 20C36 18.346 34.654 17 33 17C31.346 17 30 18.346 30 20C30 20.553 29.552 21 29 21C28.448 21 28 20.553 28 20C28 17.243 30.243 15 33 15C35.757 15 38 17.243 38 20C38 20.553 37.552 21 37 21Z" fill="#CB3A31"/>
</svg>
