<svg width="124" height="73" viewBox="0 0 124 73" fill="none" xmlns="http://www.w3.org/2000/svg">
<path d="M119.117 25.505V19.2517H107.827L104.48 0H55.3506H54.0363H48.4392V3.13998H53.4752L48.5277 30.8425L32.8312 42.7129V49.1517L29.8071 50.9635V43.0402H23.0721L3.45639 55.6153V51.6001H0.316406V57.6283V58.4866V65.0861H29.8071V62.0769L32.8312 60.2651V64.2495H43.4446C45.2474 69.0764 49.904 72.5233 55.3519 72.5233C60.7998 72.5233 65.4564 69.0764 67.2595 64.2498H81.8206C83.652 69.1769 88.3858 72.5239 93.7298 72.5239C99.0748 72.5239 103.811 69.1767 105.641 64.2498H112.925L115.535 55.3095L118.313 53.1701H123.687V46.4474V43.3074V25.505H119.117ZM49.9504 41.2259L53.144 38.7521L61.602 37.1099L60.9008 41.2259H49.9504ZM64.8964 36.4701L71.0955 35.2664L70.0816 41.2256H64.0863L64.8964 36.4701ZM74.3896 34.6269L80.5259 33.4356L79.1982 41.2256H73.2668L74.3896 34.6269ZM83.8203 32.7961L89.6125 31.6712C89.6609 31.915 89.7174 32.1793 89.7841 32.4606L88.2927 41.2259H82.3837L83.8203 32.7961ZM92.012 38.0854C92.6601 39.177 93.4634 40.2535 94.4588 41.2259H91.4776L92.012 38.0854ZM98.6724 40.5052C94.6166 38.1183 93.1803 33.4065 92.7043 31.0709L102.95 29.0815L98.6724 40.5052ZM56.6649 3.13972H101.839L104.734 19.7876L92.0795 22.1761C92.821 15.9071 96.9014 10.9886 96.9454 10.9363L97.3172 10.4972V4.42763H58.2326L53.986 29.3664L51.9107 29.7581L56.6649 3.13972ZM57.277 28.745L60.8827 7.56736H66.6305L63.2163 27.6237L57.277 28.745ZM69.8157 7.56762H75.8141L72.704 25.8334L66.507 27.003L69.8157 7.56762ZM78.9994 7.56762H84.9303L82.1216 24.0559L75.9949 25.2122L78.9994 7.56762ZM88.1158 7.56762H94.1772V9.37363C92.977 10.9392 89.3155 16.2109 88.8691 22.7821L85.4128 23.4345L88.1158 7.56762ZM26.6671 61.9461H3.45639V59.3451L23.9919 46.18H26.6671V61.9461ZM29.8071 58.4162V54.6241L32.8312 52.8124V56.6044L29.8071 58.4162ZM35.9712 44.275L50.6192 33.1972L105.272 22.8816L104.241 25.6325L52.1787 35.7408L51.8121 35.8117L38.8026 45.889V61.1095H35.9709V44.275H35.9712ZM41.9429 61.1095V47.4286L45.8966 44.3658H98.5811C99.0112 45.7074 99.9386 46.8598 101.212 47.5571C104.913 49.5845 107.256 53.4009 107.419 57.5951L106.357 58.4128C105.655 52.0648 100.261 47.1104 93.7295 47.1104C87.874 47.1104 82.9338 51.0927 81.4679 56.4906H67.6141C66.1479 51.0925 61.2077 47.1099 55.3519 47.1099C48.3456 47.1099 42.6452 52.81 42.6452 59.8169C42.6452 60.2533 42.6674 60.6843 42.7106 61.1095H41.9429ZM55.3516 69.3834C50.0767 69.3834 45.7849 65.0918 45.7849 59.8166C45.7849 54.5415 50.0765 50.2496 55.3516 50.2496C60.6268 50.2496 64.9186 54.5412 64.9186 59.8166C64.9184 65.0918 60.6268 69.3834 55.3516 69.3834ZM68.0539 59.6306H81.0278C81.0267 59.6929 81.0228 59.7549 81.0228 59.8174C81.0228 60.2507 81.0511 60.6817 81.0945 61.1098H67.9929C68.0361 60.6846 68.0584 60.2533 68.0584 59.8169C68.0584 59.7544 68.0547 59.6929 68.0539 59.6306ZM103.213 61.0889L103.162 61.4151C103.118 61.693 103.058 61.9743 102.977 62.2768C101.867 66.4614 98.064 69.3839 93.7295 69.3839C89.3951 69.3839 85.5925 66.4614 84.4818 62.2752C84.2701 61.4813 84.1628 60.6542 84.1628 59.8172C84.1628 54.542 88.4544 50.2502 93.7295 50.2502C99.0047 50.2502 103.297 54.5417 103.297 59.8172C103.296 60.2411 103.268 60.6673 103.213 61.0889ZM110.57 61.1098H108.001L111.315 58.5583L110.57 61.1098ZM115.977 51.0056L110.329 55.3545C109.522 50.9166 106.76 47.016 102.72 44.8031C101.938 44.3747 101.452 43.5547 101.452 42.6624V42.4774C101.452 42.1843 101.504 41.896 101.607 41.6215L108.808 22.3917H115.977V51.0056ZM120.546 50.0301H119.118V46.4474H120.546V50.0301ZM119.118 43.3074V28.645H120.546V43.3074H119.118Z" fill="#4E45DD"/>
</svg>
